<?xml version="1.0" encoding="utf-8"?>
<!-- Generator: Adobe Illustrator 24.0.1, SVG Export Plug-In . SVG Version: 6.00 Build 0)  -->
<svg version="1.1" id="Camada_1" xmlns="http://www.w3.org/2000/svg" xmlns:xlink="http://www.w3.org/1999/xlink" x="0px" y="0px"
	 viewBox="0 0 48 48" style="enable-background:new 0 0 48 48;" xml:space="preserve">
<style type="text/css">
	.st0{fill:#E68C18;}
	.st1{fill:#E34E19;}
	.st2{fill:#E7A118;}
	.st3{fill:#E33F18;}
	.st4{fill:#E36018;}
	.st5{fill:#E57E18;}
	.st6{fill:#E46E18;}
</style>
<g>
	<path class="st0" d="M16.28,20.5c0.14-0.56,0.72-0.91,0.72-1.71c-1.57,0-3.16,0-4.74,0c-1.6-0.01-3.2-0.03-4.79-0.02
		c-0.45,0-0.6-0.1-0.34-0.54c0.85-1.49,1.69-2.99,2.51-4.5c0.2-0.37,0.5-0.38,0.83-0.38c5.07,0,10.14,0,15.21,0
		c0.58,0,0.74,0.12,0.4,0.69c-1.53,2.52-2.83,5.19-4.51,7.63c-0.13,0.19-0.07,0.47-0.28,0.63c-0.26,0.13-0.57,0.09-0.77-0.04
		c-0.86-0.57-1.55-0.05-2.25,0.32c-0.78,0.41-1.22,0.31-1.47-0.52C16.63,21.54,16.21,21.1,16.28,20.5z"/>
	<path class="st1" d="M16.32,30.83c-0.01,0.54,0.41,0.41,0.69,0.41c1.91,0.01,3.83,0.01,6,0.01c-1.13,1.97-2.08,3.62-3.03,5.29
		c-0.2,0.36-0.54,0.31-0.86,0.31c-3.76-0.03-7.52-0.08-11.28-0.09c-0.7,0-0.93-0.1-0.5-0.8c1.06-1.74,2.07-3.52,3.1-5.28
		c0.44-0.41,0.83-0.84,1.06-1.43c0.29-0.75,0.55-0.8,1.13-0.27c0.18,0.16,0.41,0.26,0.53,0.46c0.31,0.51,0.57,0.55,1.09,0.18
		C14.88,29.16,15.89,29.81,16.32,30.83z"/>
	<path class="st2" d="M29.09,13.75c1.74-2.99,3.47-5.97,5.2-8.97c0.14-0.24,0.31-0.37,0.55-0.37c1.97-0.01,3.95,0,6.16,0
		c-2.49,4.17-4.87,8.18-7.26,12.19c-0.61,0.06-1.12,0.24-1.45,0.84c-0.18,0.32-0.43,0.66-0.91,0.54c-0.3-0.08-0.38-0.34-0.44-0.61
		c-0.12-0.53,0.3-0.63,0.64-0.78c0.08-0.04,0.14-0.1,0.21-0.16c0.09-0.08,0.14-0.19,0.21-0.28c-0.07,0.08-0.12,0.18-0.18,0.26
		c-1.07,0.63-1.19,0.62-1.85-0.1c-0.06-0.06-0.12-0.12-0.16-0.19c-0.25-0.29-0.46-0.6-0.38-1.01C29.52,14.6,29.35,14.16,29.09,13.75
		z"/>
	<path class="st3" d="M34.48,34.58c1.76,2.93,3.52,5.86,5.34,8.89c-1.15,0.2-2.2,0.03-3.25,0.08c-0.71,0.03-1.43-0.09-2.13,0.01
		c-1.01,0.15-1.51-0.28-1.98-1.13c-1.36-2.52-2.82-4.99-4.24-7.48c0.12-0.43,0.55-0.48,0.84-0.69c0.08-0.03,0.16-0.05,0.24-0.06
		c0.65-0.57,1.53-0.53,2.28-0.84c0.33-0.13,0.65-0.04,0.87,0.25c0.21,0.27,0.08,0.53,0,0.83c-0.18,0.62-0.82,0.7-1.01,1.01
		c-0.23,0.2-0.2,0.02-0.15,0.13c0.01,0.03,0.04,0.02,0.09-0.02c0.55-0.42,1.05-0.86,1.27-1.58c0.17-0.56,0.97-0.56,1.25-0.02
		C34.06,34.22,34.25,34.4,34.48,34.58z"/>
	<path class="st4" d="M29.33,34.58c-0.37,0.12-0.73,0.25-1.1,0.37c-1.84-3.2-3.67-6.41-5.51-9.61c0.13-0.25,0.13-0.49,0-0.74
		c0.07-0.11,0.14-0.22,0.2-0.33c0.35-0.17,0.66-0.16,0.97,0.11c0.35,0.3,0.78,0.45,1.23,0.49c-0.01,0-0.04-0.03-0.04-0.03
		s-0.04,0.03-0.05,0.03c-0.79-0.16-0.71-0.69-0.5-1.22c0.25-0.61,0.67-0.38,1.09-0.17c0.91,0.45,1.11,1.34,1.47,2.09
		c0.31-0.53,0.86-0.63,1.39-0.09c0.26,0.26,0.5,0.47,0.86,0.51c1.59,2.64,3.17,5.28,4.76,7.92c0.13,0.22,0.25,0.45,0.37,0.68
		c-0.18-0.09-0.43-0.13-0.54-0.28c-0.29-0.38-0.65-0.43-1.02-0.25c-0.4,0.19-0.15,0.49-0.03,0.75c0.03,0.07,0.01,0.18-0.02,0.26
		c-0.29,0.7-1.05,0.3-1.55,0.62c-0.22,0.14-0.75-0.32-0.75-0.87c0.49-0.09,0.3,0.5,0.6,0.52c0.58-0.15,0.5-0.9,1.07-1.08
		c0.23-0.07-0.01-0.3-0.1-0.42c-0.11-0.15-0.37-0.28-0.42-0.07c-0.13,0.61-0.51,0.34-0.87,0.37C30.33,34.18,29.78,34.27,29.33,34.58
		L29.33,34.58z"/>
	<path class="st5" d="M29.35,25.98c-0.43,0.15-0.89,0.22-1.36,0.82c0.09-0.38,0.15-0.49,0.13-0.58c-0.07-0.22,0.41-0.54-0.15-0.69
		c-0.35-0.09-0.55-0.07-0.69,0.28c-0.13,0.33-0.44,0.45-0.77,0.54c0.26-1.04-0.35-2.09-1.56-2.68c-0.15,0.44-0.29,0.86,0.28,1.11
		c0.21,0.51,0.26,0.96-0.42,1.21c-0.22-0.31,0.26-0.55,0.02-0.82c-0.26-0.29-0.4-0.1-0.64,0.05c-0.18,0.11-0.21-0.29-0.38-0.4
		c-0.3-0.19-0.59-0.38-0.89-0.57c1.51-2.74,3.07-5.45,4.76-8.07c0.36-0.18,0.44-0.5,0.45-0.86c0.1-0.16,0.21-0.32,0.31-0.49
		c0.37-0.06,0.35-0.33,0.34-0.6c0.03-0.21,0.15-0.36,0.3-0.5c0.56,0.15,0.85,0.42,0.68,1.07c-0.12,0.45-0.21,1.04,0.63,0.7
		c0.01,0.33-0.26,0.37-0.36,0.54c-0.11,0.23-0.31,0.32-0.54,0.36c0.23-0.04,0.44-0.12,0.53-0.36c0.52,0.52,1.14,0.49,1.79,0.37
		l-0.01-0.01c-0.26,0.38-0.72,0.71-0.28,1.24c0.65-0.31,0.42-1.41,1.3-1.52c0.38-0.05,0.69,0.13,0.9,0.46
		c-1.49,2.8-3.14,5.5-4.79,8.21c-0.43,0.41,0.03,0.6,0.21,0.86C29.22,25.77,29.28,25.88,29.35,25.98z"/>
	<path class="st6" d="M16.32,30.83c-0.42-0.2-0.84-0.39-1.19-0.74c-0.38-0.38-0.82-0.45-0.9,0.3c-0.04,0.34-0.24,0.6-0.53,0.64
		c-0.5,0.07-0.04-0.5-0.28-0.55c-0.49-0.1-0.23-1.19-1.24-0.76c-0.47,0.2,0.05-0.55-0.09-1.04c-0.5,0.83-0.69,1.77-1.65,1.99
		c1.9-3.42,3.81-6.82,5.83-10.17c0.57,0.33,0.85,0.83,0.93,1.49c0.05,0.4,0.22,0.87,0.66,0.19c0.06-0.09,0.15-0.18,0.25-0.23
		c0.96-0.51,0.96-0.51,1.37-1.26c-0.02,0.87,0.63,1.02,1.07,1.02c0.54-0.01,0.54,0.32,0.7,0.59c-1.45,2.56-2.79,5.19-4.45,7.62
		C16.63,30.2,16.49,30.53,16.32,30.83z"/>
	<path class="st2" d="M28.79,14.25c0.07,0.06,0.13,0.13,0.2,0.18c0.17,0.14,0.48,0.17,0.44,0.49c-0.03,0.2-0.19,0.29-0.37,0.34
		c-0.34,0.08-0.47-0.17-0.6-0.41C28.56,14.65,28.68,14.45,28.79,14.25z"/>
	<path class="st4" d="M29.15,25.67c-0.42-0.16-0.42-0.16-1.06-0.97c0.33-0.36,0.55,0.23,0.85,0.11
		C28.86,25.13,29.11,25.37,29.15,25.67z"/>
	<path class="st5" d="M22.72,24.6c0.21,0.04,0.51,0,0.53,0.29c0.01,0.31-0.29,0.37-0.53,0.44C22.57,25.09,22.52,24.84,22.72,24.6z"
		/>
	<path class="st2" d="M28.14,15.33c0.17,0.45,0.13,0.79-0.45,0.86C27.84,15.9,27.99,15.62,28.14,15.33z"/>
	<path class="st6" d="M19.44,19.18c-0.44,0.4-0.72,0.68-0.37,1.14c0.17,0.23-0.14,0.34-0.25,0.49c-0.07,0.1-0.2,0.16-0.31,0.06
		c-0.15-0.14-0.1-0.34-0.05-0.5C18.61,19.92,18.52,19.32,19.44,19.18z"/>
	<path class="st5" d="M31.82,16.42c0.01-0.25,0.27-0.5,0.05-0.75c-0.19-0.22-0.26-0.46,0.03-0.54c0.23-0.06,0.39,0.24,0.44,0.47
		C32.46,16.04,32.09,16.2,31.82,16.42C31.82,16.41,31.82,16.42,31.82,16.42z"/>
	<path class="st3" d="M29.33,34.58c-0.23-0.04-0.57,0.07-0.55-0.35c0-0.08,0.14-0.23,0.22-0.22C29.39,34.01,29.28,34.35,29.33,34.58
		C29.32,34.58,29.33,34.58,29.33,34.58z"/>
	<path class="st5" d="M25.46,24.25c0.15,0.06,0.24,0.19,0.25,0.33c0.02,0.25-0.19,0.13-0.31,0.17c-0.28,0.1-0.19-0.13-0.19-0.23
		C25.2,24.36,25.27,24.24,25.46,24.25z"/>
	<path class="st3" d="M28.48,33.29c-0.06,0.04-0.15,0.13-0.24,0.14c-0.14,0.02-0.18-0.11-0.16-0.23c0.02-0.12,0.09-0.22,0.23-0.2
		C28.43,33,28.49,33.1,28.48,33.29z"/>
	<path class="st2" d="M30.03,16.05c0.04,0.55-0.45,0.68-0.75,0.97c-0.15,0.15-0.34,0.29-0.54,0.12c-0.31-0.26,0.08-0.3,0.17-0.44
		c0.04-0.06,0.07-0.19,0.04-0.23c-0.21-0.27-0.41-0.57-0.02-0.81c0.37-0.22,0.57,0.11,0.79,0.35
		C29.77,16.07,29.93,16.05,30.03,16.05C30.04,16.06,30.03,16.05,30.03,16.05z"/>
	<path class="st1" d="M15.67,27.72c0.03,1.19-0.77,0.61-1.34,0.7C14.57,27.7,15.52,28.52,15.67,27.72z"/>
</g>
</svg>
